# xmcd
#
# Track frame offsets: 
#        150
#        12063
#        27264
#        39843
#        52183
#        70515
#        83698
#        97564
#        115623
#        126612
#        138576
#        153296
#        163079
#        175496
#        186766
#        200445
#        215989
#        225945
#        239275
#        257116
#
# Disc length: 3675 seconds
#
# Revision: 1
# Processed by: cddbd v1.4PL0 Copyright (c) Steve Scherf et al.
# Submitted via: ExactAudioCopy v0.90b4
#
DISCID=080e5914
DTITLE=Reba McEntire - I'm Not That Lonely
DYEAR=1900
DGENRE=Country
TTITLE0=I'm Not That Lonely Yet
TTITLE1=I'm Getting Over You
TTITLE2=You Lift Me Up To Heaven
TTITLE3=Can't Even Get The Blues
TTITLE4=Every Second Someone Breaks A Heart
TTITLE5=You're The First Time I've Thought About Leavin'
TTITLE6=Daddy
TTITLE7=(Love Lift Us) Up Where We Belong
TTITLE8=There Ain't No Future In The Past
TTITLE9=Open Road (Hot Rod Guitar)
TTITLE10=Today All Over Again
TTITLE11=What We Can't Have
TTITLE12=Who Ever's Watchin'
TTITLE13=Silver Eagle
TTITLE14=He Broke Your Memory Last Night
TTITLE15=Red Roses
TTITLE16=Pins And Needles
TTITLE17=Poison Sugar
TTITLE18=Just A Little Love
TTITLE19=Islands In The Stream
EXTD=
EXTT0=
EXTT1=
EXTT2=
EXTT3=
EXTT4=
EXTT5=
EXTT6=
EXTT7=
EXTT8=
EXTT9=
EXTT10=
EXTT11=
EXTT12=
EXTT13=
EXTT14=
EXTT15=
EXTT16=
EXTT17=
EXTT18=
EXTT19=
PLAYORDER=
